{
  "extensionsUsed": [
    "KHR_materials_transmission",
    "KHR_materials_clearcoat",
    "KHR_materials_ior",
    "KHR_materials_specular",
    "KHR_materials_emissive_strength",
    "KHR_texture_transform"
  ],
  "accessors": [
    {
      "bufferView": 0,
      "componentType": 5126,
      "count": 12,
      "type": "VEC3",
      "max": [
        0.081332095,
        1.1455495,
        1.5375015
      ],
      "min": [
        -0.081332035,
        1.1385261,
        1.5259117
      ]
    },
    {
      "bufferView": 1,
      "componentType": 5125,
      "count": 12,
      "type": "SCALAR",
      "max": [
        11.0
      ],
      "min": [
        0.0
      ]
    },
    {
      "bufferView": 2,
      "componentType": 5126,
      "count": 12,
      "type": "VEC3",
      "max": [
        0.9780869,
        -0.1587163,
        0.24852307
      ],
      "min": [
        -0.9780869,
        -0.20348097,
        0.044062693
      ]
    },
    {
      "bufferView": 3,
      "componentType": 5126,
      "count": 100,
      "type": "VEC3",
      "max": [
        0.08176167,
        1.1469767,
        1.5614697
      ],
      "min": [
        -0.08176162,
        1.1211499,
        1.5205853
      ]
    },
    {
      "bufferView": 4,
      "componentType": 5125,
      "count": 132,
      "type": "SCALAR",
      "max": [
        99.0
      ],
      "min": [
        0.0
      ]
    },
    {
      "bufferView": 5,
      "componentType": 5126,
      "count": 100,
      "type": "VEC3",
      "max": [
        0.99263275,
        0.019126527,
        0.41789392
      ],
      "min": [
        -0.99263287,
        -0.26688898,
        0.040613003
      ]
    },
    {
      "bufferView": 6,
      "componentType": 5126,
      "count": 160,
      "type": "VEC3",
      "max": [
        0.0861969,
        1.1685239,
        1.5866348
      ],
      "min": [
        -0.08619685,
        1.087641,
        1.4807518
      ]
    },
    {
      "bufferView": 7,
      "componentType": 5125,
      "count": 240,
      "type": "SCALAR",
      "max": [
        159.0
      ],
      "min": [
        0.0
      ]
    },
    {
      "bufferView": 8,
      "componentType": 5126,
      "count": 160,
      "type": "VEC3",
      "max": [
        0.9912816,
        0.29108846,
        0.5919644
      ],
      "min": [
        -0.9912818,
        -0.32510358,
        -0.18969467
      ]
    },
    {
      "bufferView": 9,
      "componentType": 5126,
      "count": 156,
      "type": "VEC3",
      "max": [
        0.08524707,
        1.2020893,
        1.7227731
      ],
      "min": [
        -0.08524702,
        1.0855479,
        1.4787018
      ]
    },
    {
      "bufferView": 10,
      "componentType": 5125,
      "count": 228,
      "type": "SCALAR",
      "max": [
        155.0
      ],
      "min": [
        0.0
      ]
    },
    {
      "bufferView": 11,
      "componentType": 5126,
      "count": 156,
      "type": "VEC3",
      "max": [
        0.8310313,
        0.9551847,
        0.77477247
      ],
      "min": [
        -0.8310322,
        -0.8954411,
        -0.36215582
      ]
    },
    {
      "bufferView": 12,
      "componentType": 5126,
      "count": 830,
      "type": "VEC3",
      "max": [
        0.22181617,
        1.2397091,
        1.7218665
      ],
      "min": [
        -0.22181614,
        0.16438584,
        0.44070143
      ]
    },
    {
      "bufferView": 13,
      "componentType": 5125,
      "count": 1218,
      "type": "SCALAR",
      "max": [
        829.0
      ],
      "min": [
        0.0
      ]
    },
    {
      "bufferView": 14,
      "componentType": 5126,
      "count": 830,
      "type": "VEC3",
      "max": [
        0.99287534,
        0.21440469,
        0.99699336
      ],
      "min": [
        -0.9928754,
        -0.999999,
        -0.99251866
      ]
    },
    {
      "bufferView": 15,
      "componentType": 5126,
      "count": 366,
      "type": "VEC3",
      "max": [
        0.13427979,
        1.089131,
        1.7447088
      ],
      "min": [
        -0.13427982,
        -0.059913907,
        0.40761632
      ]
    },
    {
      "bufferView": 16,
      "componentType": 5125,
      "count": 534,
      "type": "SCALAR",
      "max": [
        365.0
      ],
      "min": [
        0.0
      ]
    },
    {
      "bufferView": 17,
      "componentType": 5126,
      "count": 366,
      "type": "VEC3",
      "max": [
        0.9985018,
        0.9869502,
        0.9918539
      ],
      "min": [
        -0.9985018,
        -1.0,
        -0.98758876
      ]
    },
    {
      "bufferView": 18,
      "componentType": 5126,
      "count": 2654,
      "type": "VEC3",
      "max": [
        0.22181617,
        1.2397091,
        1.7283989
      ],
      "min": [
        -0.22181614,
        -0.03723429,
        0.41319638
      ]
    },
    {
      "bufferView": 19,
      "componentType": 5125,
      "count": 3930,
      "type": "SCALAR",
      "max": [
        2653.0
      ],
      "min": [
        0.0
      ]
    },
    {
      "bufferView": 20,
      "componentType": 5126,
      "count": 2654,
      "type": "VEC3",
      "max": [
        0.99935085,
        0.99851775,
        0.9739672
      ],
      "min": [
        -0.9993509,
        -0.99583906,
        -0.99848497
      ]
    }
  ],
  "asset": {
    "version": "2.0"
  },
  "buffers": [
    {
      "uri": "data:application/octet-stream;base64,",
      "byteLength": 144
    },
    {
      "uri": "data:application/octet-stream;base64,",
      "byteLength": 48
    },
    {
      "uri": "data:application/octet-stream;base64,",
      "byteLength": 144
    },
    {
      "uri": "data:application/octet-stream;base64,",
      "byteLength": 1200
    },
    {
      "uri": "data:application/octet-stream;base64,",
      "byteLength": 528
    },
    {
      "uri": "data:application/octet-stream;base64,",
      "byteLength": 1200
    },
    {
      "uri": "data:application/octet-stream;base64,",
      "byteLength": 1920
    },
    {
      "uri": "data:application/octet-stream;base64,",
      "byteLength": 960
    },
    {
      "uri": "data:application/octet-stream;base64,",
      "byteLength": 1920
    },
    {
      "uri": "data:application/octet-stream;base64,",
      "byteLength": 1872
    },
    {
      "uri": "data:application/octet-stream;base64,",
      "byteLength": 912
    },
    {
      "uri": "data:application/octet-stream;base64,",
      "byteLength": 1872
    },
    {
      "uri": "data:application/octet-stream;base64,",
      "byteLength": 9960
    },
    {
      "uri": "data:application/octet-stream;base64,",
      "byteLength": 4872
    },
    {
      "uri": "data:application/octet-stream;base64,",
      "byteLength": 9960
    },
    {
      "uri": "data:application/octet-stream;base64,",
      "byteLength": 4392
    },
    {
      "uri": "data:application/octet-stream;base64,",
      "byteLength": 2136
    },
    {
      "uri": "data:application/octet-stream;base64,",
      "byteLength": 4392
    },
    {
      "uri": "data:application/octet-stream;base64,",
      "byteLength": 31848
    },
    {
      "uri": "data:application/octet-stream;base64,",
      "byteLength": 15720
    },
    {
      "uri": "data:application/octet-stream;base64,",
      "byteLength": 31848
    }
  ],
  "bufferViews": [
    {
      "buffer": 0,
      "byteLength": 144,
      "target": 34962
    },
    {
      "buffer": 1,
      "byteLength": 48,
      "target": 34963
    },
    {
      "buffer": 2,
      "byteLength": 144,
      "target": 34962
    },
    {
      "buffer": 3,
      "byteLength": 1200,
      "target": 34962
    },
    {
      "buffer": 4,
      "byteLength": 528,
      "target": 34963
    },
    {
      "buffer": 5,
      "byteLength": 1200,
      "target": 34962
    },
    {
      "buffer": 6,
      "byteLength": 1920,
      "target": 34962
    },
    {
      "buffer": 7,
      "byteLength": 960,
      "target": 34963
    },
    {
      "buffer": 8,
      "byteLength": 1920,
      "target": 34962
    },
    {
      "buffer": 9,
      "byteLength": 1872,
      "target": 34962
    },
    {
      "buffer": 10,
      "byteLength": 912,
      "target": 34963
    },
    {
      "buffer": 11,
      "byteLength": 1872,
      "target": 34962
    },
    {
      "buffer": 12,
      "byteLength": 9960,
      "target": 34962
    },
    {
      "buffer": 13,
      "byteLength": 4872,
      "target": 34963
    },
    {
      "buffer": 14,
      "byteLength": 9960,
      "target": 34962
    },
    {
      "buffer": 15,
      "byteLength": 4392,
      "target": 34962
    },
    {
      "buffer": 16,
      "byteLength": 2136,
      "target": 34963
    },
    {
      "buffer": 17,
      "byteLength": 4392,
      "target": 34962
    },
    {
      "buffer": 18,
      "byteLength": 31848,
      "target": 34962
    },
    {
      "buffer": 19,
      "byteLength": 15720,
      "target": 34963
    },
    {
      "buffer": 20,
      "byteLength": 31848,
      "target": 34962
    }
  ],
  "materials": [
    {
      "name": "Eye_White",
      "extensions": {
        "KHR_materials_transmission": {},
        "KHR_materials_clearcoat": {},
        "KHR_materials_ior": {
          "ior": 1.52
        },
        "KHR_materials_specular": {
          "specularFactor": 1.0,
          "specularColorFactor": [
            1.0,
            1.0,
            1.0
          ]
        }
      },
      "pbrMetallicRoughness": {
        "baseColorFactor": [
          0.8629429,
          0.8629429,
          0.8629429,
          1.0
        ],
        "metallicFactor": 0.0,
        "roughnessFactor": 0.5
      }
    },
    {
      "name": "Eye_Black",
      "extensions": {
        "KHR_materials_transmission": {},
        "KHR_materials_clearcoat": {},
        "KHR_materials_ior": {
          "ior": 1.52
        },
        "KHR_materials_specular": {
          "specularFactor": 1.0,
          "specularColorFactor": [
            1.0,
            1.0,
            1.0
          ]
        }
      },
      "pbrMetallicRoughness": {
        "baseColorFactor": [
          0.11762368,
          0.11762368,
          0.11762368,
          1.0
        ],
        "metallicFactor": 0.0,
        "roughnessFactor": 0.5
      }
    },
    {
      "name": "Eye_Lighter",
      "extensions": {
        "KHR_materials_transmission": {},
        "KHR_materials_clearcoat": {},
        "KHR_materials_ior": {
          "ior": 1.52
        },
        "KHR_materials_specular": {
          "specularFactor": 1.0,
          "specularColorFactor": [
            1.0,
            1.0,
            1.0
          ]
        }
      },
      "pbrMetallicRoughness": {
        "baseColorFactor": [
          0.68082714,
          0.4566811,
          0.31930643,
          1.0
        ],
        "metallicFactor": 0.0,
        "roughnessFactor": 0.5
      }
    },
    {
      "name": "Main_Dark",
      "extensions": {
        "KHR_materials_transmission": {},
        "KHR_materials_clearcoat": {},
        "KHR_materials_ior": {
          "ior": 1.52
        },
        "KHR_materials_specular": {
          "specularFactor": 1.0,
          "specularColorFactor": [
            1.0,
            1.0,
            1.0
          ]
        }
      },
      "pbrMetallicRoughness": {
        "baseColorFactor": [
          0.45087808,
          0.30780005,
          0.21995878,
          1.0
        ],
        "metallicFactor": 0.0,
        "roughnessFactor": 0.5
      }
    },
    {
      "name": "Main_Light",
      "extensions": {
        "KHR_materials_transmission": {},
        "KHR_materials_clearcoat": {},
        "KHR_materials_ior": {
          "ior": 1.52
        },
        "KHR_materials_specular": {
          "specularFactor": 1.0,
          "specularColorFactor": [
            1.0,
            1.0,
            1.0
          ]
        }
      },
      "pbrMetallicRoughness": {
        "baseColorFactor": [
          0.71427566,
          0.6586477,
          0.5707921,
          1.0
        ],
        "metallicFactor": 0.0,
        "roughnessFactor": 0.5
      }
    },
    {
      "name": "Hooves",
      "extensions": {
        "KHR_materials_transmission": {},
        "KHR_materials_clearcoat": {},
        "KHR_materials_ior": {
          "ior": 1.52
        },
        "KHR_materials_specular": {
          "specularFactor": 1.0,
          "specularColorFactor": [
            1.0,
            1.0,
            1.0
          ]
        }
      },
      "pbrMetallicRoughness": {
        "baseColorFactor": [
          0.3047551,
          0.26291847,
          0.2558322,
          1.0
        ],
        "metallicFactor": 0.0,
        "roughnessFactor": 0.5
      }
    },
    {
      "name": "Main",
      "extensions": {
        "KHR_materials_transmission": {},
        "KHR_materials_clearcoat": {},
        "KHR_materials_ior": {
          "ior": 1.52
        },
        "KHR_materials_specular": {
          "specularFactor": 1.0,
          "specularColorFactor": [
            1.0,
            1.0,
            1.0
          ]
        }
      },
      "pbrMetallicRoughness": {
        "baseColorFactor": [
          0.57513565,
          0.388279,
          0.27368975,
          1.0
        ],
        "metallicFactor": 0.0,
        "roughnessFactor": 0.5
      }
    }
  ],
  "meshes": [
    {
      "primitives": [
        {
          "attributes": {
            "POSITION": 0,
            "NORMAL": 2
          },
          "indices": 1,
          "material": 0
        }
      ]
    },
    {
      "primitives": [
        {
          "attributes": {
            "POSITION": 3,
            "NORMAL": 5
          },
          "indices": 4,
          "material": 1
        }
      ]
    },
    {
      "primitives": [
        {
          "attributes": {
            "POSITION": 6,
            "NORMAL": 8
          },
          "indices": 7,
          "material": 2
        }
      ]
    },
    {
      "primitives": [
        {
          "attributes": {
            "POSITION": 9,
            "NORMAL": 11
          },
          "indices": 10,
          "material": 3
        }
      ]
    },
    {
      "primitives": [
        {
          "attributes": {
            "POSITION": 12,
            "NORMAL": 14
          },
          "indices": 13,
          "material": 4
        }
      ]
    },
    {
      "primitives": [
        {
          "attributes": {
            "POSITION": 15,
            "NORMAL": 17
          },
          "indices": 16,
          "material": 5
        }
      ]
    },
    {
      "primitives": [
        {
          "attributes": {
            "POSITION": 18,
            "NORMAL": 20
          },
          "indices": 19,
          "material": 6
        }
      ]
    }
  ],
  "nodes": [
    {
      "mesh": 0,
      "name": "Cube"
    },
    {
      "mesh": 1,
      "name": "Cube"
    },
    {
      "mesh": 2,
      "name": "Cube"
    },
    {
      "mesh": 3,
      "name": "Cube"
    },
    {
      "mesh": 4,
      "name": "Cube"
    },
    {
      "mesh": 5,
      "name": "Cube"
    },
    {
      "mesh": 6,
      "name": "Cube"
    }
  ],
  "samplers": [
    {
      "magFilter": 9729,
      "minFilter": 9729
    }
  ],
  "scene": 0,
  "scenes": [
    {
      "nodes": [
        0,
        1,
        2,
        3,
        4,
        5,
        6
      ],
      "extensions": {}
    }
  ],
  "extensions": {}
}